<mxfile host="app.diagrams.net" modified="2020-12-15T07:29:46.184Z" agent="5.0 (Windows NT 10.0; Win64; x64) AppleWebKit/537.36 (KHTML, like Gecko) Chrome/86.0.4240.193 Safari/537.36" etag="GNCVQE6Sfr0GBmemgtxB" version="14.0.1" type="github">
  <diagram id="7YPaOeH2_3-noSw0kozz" name="Page-1">
    <mxGraphModel dx="2062" dy="715" grid="1" gridSize="10" guides="1" tooltips="1" connect="1" arrows="1" fold="1" page="1" pageScale="1" pageWidth="827" pageHeight="1169" math="0" shadow="0">
      <root>
        <mxCell id="0" />
        <mxCell id="1" parent="0" />
      </root>
    </mxGraphModel>
  </diagram>
</mxfile>
